<svg width="70" height="70" xmlns="http://www.w3.org/2000/svg" xmlns:xlink="http://www.w3.org/1999/xlink">
 <defs>
  <path id="a" d="m4,0l61,0c4,0 5,1 5,5l0,60c0,4 -1,5 -5,5l-61,0c-3,0 -4,-1 -4,-5l0,-60c0,-4 1,-5 4,-5z"/>
  <linearGradient id="c" x1="100%" x2="0%" y1="0%" y2="100%">
   <stop offset="0%" stop-color="#DA956B"/>
   <stop offset="100%" stop-color="#CC7039"/>
  </linearGradient>
 </defs>
 <g>
  <title>Layer 1</title>
  <g fill="none" fill-rule="evenodd" id="svg_1">
   <mask id="b" fill="#fff">
    <use xlink:href="#a" id="svg_2"/>
   </mask>
   <g mask="url(#b)" id="svg_3">
    <path fill="url(#c)" d="m0,0.52632l70,0l0,70l-70,0l0,-70z" id="svg_4"/>
    <path fill="#FFF" fill-opacity="0.383" d="m4,1.52632l61,0c2.667,0 4.333,0.667 5,2l0,-3l-70,0l0,3c0.667,-1.333 2,-2 4,-2z" id="svg_5"/>
   </g>
  </g>
  <path id="svg_6" d="m46.65892,22.20664c-2.95098,-2.41226 -6.13377,-4.34464 -8.74464,-4.60808c-0.14213,-0.01709 -0.28934,-0.02706 -0.44502,-0.0299l-17.18302,0c-0.27412,0 -0.54485,0.08971 -0.73774,0.25632c-0.1912,0.16234 -0.30457,0.39018 -0.30457,0.62229l0,36.6681c0,0.23069 0.1066,0.45141 0.30457,0.61944c0.19797,0.16518 0.45855,0.2549 0.73774,0.2549l31.07326,0c0.27412,0 0.53639,-0.08829 0.73436,-0.2549c0.19797,-0.16661 0.30796,-0.38733 0.30796,-0.61944l0,-24.40031c-0.06091,-2.83234 -2.69717,-5.92101 -5.7429,-8.50842zm-1.46703,1.24173c1.36212,1.11927 2.58718,2.38663 3.5009,3.60843c-0.79189,-0.26344 -1.6227,-0.45853 -2.40275,-0.61375c-1.71746,-0.32467 -3.39769,-0.45568 -4.4417,-0.50837c0.00508,-0.18939 0.00677,-0.40299 0.00677,-0.63511c0,-1.23746 -0.09306,-3.0018 -0.60238,-4.55681c-0.00508,-0.01424 -0.00846,-0.02848 -0.01523,-0.04272c1.29274,0.7177 2.70055,1.67036 3.95438,2.74833zm5.12191,30.78554l-28.98862,0l0,-34.91373l16.14577,0l0,0.00285c0.7039,-0.0356 1.31136,0.54967 1.77668,1.88823c0.42302,1.27448 0.52962,2.9363 0.52793,4.08832c0.00338,0.84443 -0.04569,1.41119 -0.04569,1.41119l-0.08291,0.92845l1.11,0.00997c0.00508,0 2.56518,0.02563 5.07622,0.50552c2.4129,0.43859 4.29956,1.31293 4.47554,2.30261c0.00677,0.08829 0.00846,0.17658 0.00677,0.25917l0,23.51743l-0.00169,0z" stroke="#ffffff" fill="#fff"/>
 </g>
</svg>