<svg width="70" height="70" xmlns="http://www.w3.org/2000/svg" xmlns:xlink="http://www.w3.org/1999/xlink">
 <defs>
  <path id="a" d="m4,0l61,0c4,0 5,1 5,5l0,60c0,4 -1,5 -5,5l-61,0c-3,0 -4,-1 -4,-5l0,-60c0,-4 1,-5 4,-5z"/>
  <linearGradient id="c" x1="100%" x2="0%" y1="0%" y2="98.616%">
   <stop offset="0%" stop-color="#797C79"/>
   <stop offset="100%" stop-color="#545554"/>
  </linearGradient>
 </defs>
 <g>
  <title>Layer 1</title>
  <g fill="none" fill-rule="evenodd" id="svg_1">
   <mask id="b" fill="#fff">
    <use xlink:href="#a" id="svg_2"/>
   </mask>
   <g mask="url(#b)" id="svg_3">
    <path fill="url(#c)" d="m0,0l70,0l0,70l-70,0l0,-70z" id="svg_4"/>
    <path fill="#FFF" fill-opacity="0.383" d="m4,1l61,0c2.667,0 4.333,0.667 5,2l0,-3l-70,0l0,3c0.667,-1.333 2,-2 4,-2z" id="svg_5"/>
    <path fill="#393939" d="m32.25,69l-28.25,0c-2,0 -4,-1 -4,-4l0,-25.819l19,-19.181l32,0l0,6.208l1.992,12.632l-1.992,2.283l0,8.877l-18.75,19z" opacity="0.324" id="svg_6"/>
    <path fill="#000" fill-opacity="0.383" d="m4,69l61,0c2.667,0 4.333,-1 5,-3l0,4l-70,0l0,-4c0.667,2 2,3 4,3z" id="svg_7"/>
   </g>
  </g>
  <path id="svg_8" d="m49.50165,29.38363c0.03238,-0.42589 0.05113,-0.85615 0.05113,-1.29078c0,-7.5394 -4.76903,-13.65043 -10.65277,-13.65043c-4.5662,0 -8.45063,3.68889 -9.96588,8.86513c-1.00392,-1.41091 -2.43565,-2.31293 -4.04294,-2.31293c-3.0305,0 -5.4866,3.14724 -5.4866,7.03052c0,0.45865 0.0392,0.90639 0.10568,1.33883c-4.04294,0.85397 -7.1365,5.32039 -7.1365,10.74125c0,6.0324 3.81625,10.92034 8.52221,10.92034l5.80192,0l-1.20504,-1.54414c-0.64257,-0.82339 -0.9971,-1.9198 -0.9971,-3.08609c0,-1.16411 0.35452,-2.26051 0.9971,-3.0839l0.94767,-1.21653c0.68178,-0.87144 1.59706,-1.37159 2.50724,-1.37159c0.04602,0 0.09204,0 0.13636,0.00437l0,-1.03088c0,-2.41121 1.53059,-4.3725 3.40889,-4.3725l5.56671,0c1.88,0 3.40889,1.96129 3.40889,4.3725l0,1.03088c0.04602,-0.00437 0.09204,-0.00437 0.13806,-0.00437c0.90847,0 1.82375,0.50015 2.50553,1.37596l0.94937,1.20561c1.32947,1.70576 1.32947,4.47734 0,6.17655l-1.20334,1.54414l4.09578,0c4.70767,0 8.52221,-4.88794 8.52221,-10.92034c0.0017,-5.35315 -3.00834,-9.78681 -6.97458,-10.72159zm-5.64511,15.46757l-0.94767,-1.21216c-0.66473,-0.8496 -1.64308,-0.98283 -2.17487,-0.29922c-0.53179,0.68143 -0.96812,0.25772 -0.96812,-0.94352l0,-2.70388c0,-1.20124 -0.7687,-2.18407 -1.70444,-2.18407l-5.56501,0c-0.93744,0 -1.70444,0.98283 -1.70444,2.18407l0,2.70388c0,1.20124 -0.43634,1.62495 -0.96983,0.94352c-0.53179,-0.68361 -1.51184,-0.55039 -2.17487,0.29922l-0.94767,1.21216c-0.66473,0.8496 -0.66473,2.23649 -0.0017,3.08609l7.37683,9.4592c0.33066,0.42371 0.7687,0.63556 1.20504,0.63556s0.87267,-0.21185 1.20504,-0.63556l7.37512,-9.4592c0.66303,-0.84742 0.66132,-2.23649 -0.00341,-3.08609z" stroke="#ffffff" fill="#fff"/>
 </g>
</svg>