<svg width="70" height="70" xmlns="http://www.w3.org/2000/svg" xmlns:xlink="http://www.w3.org/1999/xlink">
 <defs>
  <path d="m4,0l61,0c4,0 5,1 5,5l0,60c0,4 -1,5 -5,5l-61,0c-3,0 -4,-1 -4,-5l0,-60c0,-4 1,-5 4,-5z" id="a"/>
  <path d="m53.373,32.454c0.742,0 1.206,0.784 0.824,1.4c-2.009,3.235 -5.668,5.4 -9.848,5.4c-6.318,0 -11.445,-4.944 -11.484,-11.056c-0.04,-6.14 5.147,-11.198 11.484,-11.198c4.176,0 7.831,2.16 9.842,5.389c0.385,0.62 -0.07,1.41 -0.818,1.41l-8.386,0l-3.19,4.328l3.19,4.327l8.386,0zm-13.689,7.186l-15.97,15.473c-1.994,1.931 -5.226,1.931 -7.22,0a4.837,4.837 0 0 1 0,-6.994l15.971,-15.472c1.289,3.183 3.932,5.744 7.219,6.993zm-16.39,10.74c0,-1.024 -0.857,-1.854 -1.914,-1.854s-1.914,0.83 -1.914,1.854s0.857,1.854 1.914,1.854s1.914,-0.83 1.914,-1.854z" id="d"/>
  <path d="m53.373,30.454c0.742,0 1.206,0.784 0.824,1.4c-2.009,3.235 -5.668,5.4 -9.848,5.4c-6.318,0 -11.445,-4.944 -11.484,-11.056c-0.04,-6.14 5.147,-11.198 11.484,-11.198c4.176,0 7.831,2.16 9.842,5.389c0.385,0.62 -0.07,1.41 -0.818,1.41l-8.386,0l-3.19,4.328l3.19,4.327l8.386,0zm-13.689,7.186l-15.97,15.473c-1.994,1.931 -5.226,1.931 -7.22,0a4.837,4.837 0 0 1 0,-6.994l15.971,-15.472c1.289,3.183 3.932,5.744 7.219,6.993zm-16.39,10.74c0,-1.024 -0.857,-1.854 -1.914,-1.854s-1.914,0.83 -1.914,1.854s0.857,1.854 1.914,1.854s1.914,-0.83 1.914,-1.854z" id="e"/>
  <linearGradient y2="100%" y1="0%" x2="0%" x1="100%" id="c">
   <stop stop-color="#7CC098" offset="0%"/>
   <stop stop-color="#5F8A71" offset="100%"/>
  </linearGradient>
 </defs>
 <g>
  <title>Layer 1</title>
  <g id="svg_1" fill-rule="evenodd" fill="none">
   <mask fill="#fff" id="b">
    <use id="svg_2" xlink:href="#a"/>
   </mask>
   <g id="svg_3" mask="url(#b)">
    <path id="svg_4" d="m0,0l70,0l0,70l-70,0l0,-70z" fill="url(#c)"/>
    <path id="svg_5" d="m4,1l61,0c2.667,0 4.333,0.667 5,2l0,-3l-70,0l0,3c0.667,-1.333 2,-2 4,-2z" fill-opacity="0.383" fill="#FFF"/>
    <path id="svg_6" opacity="0.324" d="m4,69c-2,0 -4,-1 -4,-4l0,-28.925l15.053,-15.2l18.452,0.218l2.734,6.93l0,4.524l17.381,19.433l-10.953,17.02l-38.667,0z" fill="#393939"/>
    <path id="svg_7" d="m4,69l61,0c2.667,0 4.333,-1 5,-3l0,4l-70,0l0,-4c0.667,2 2,3 4,3z" fill-opacity="0.383" fill="#000"/>
    <use id="svg_8" xlink:href="#d" transform="matrix(-1 0 0 1 69.334 0)" opacity="0.3" fill-rule="nonzero" fill="#000"/>
    <use id="svg_9" xlink:href="#e" transform="matrix(-1 0 0 1 69.334 0)" fill-rule="nonzero" fill="#FFF"/>
   </g>
  </g>
 </g>
</svg>