<svg width="70" height="70" xmlns="http://www.w3.org/2000/svg" xmlns:xlink="http://www.w3.org/1999/xlink">
 <defs>
  <path id="a" d="m4,0l61,0c4,0 5,1 5,5l0,60c0,4 -1,5 -5,5l-61,0c-3,0 -4,-1 -4,-5l0,-60c0,-4 1,-5 4,-5z"/>
  <path id="d" d="m53.551,19.955l-37.328,0c-2.07,0 -3.742,1.64 -3.742,3.663l0,26.864c0,2.022 1.673,3.663 3.742,3.663l37.328,0c2.07,0 3.742,-1.64 3.742,-3.663l0,-26.864c0,-2.023 -1.672,-3.663 -3.742,-3.663zm-36.86,3.663l36.393,0c0.257,0 0.467,0.206 0.467,0.458l0,3.205l-37.328,0l0,-3.205c0,-0.252 0.21,-0.458 0.467,-0.458l0.001,0zm36.393,26.864l-36.394,0a0.464,0.464 0 0 1 -0.467,-0.458l0,-12.974l37.328,0l0,12.974c0,0.252 -0.21,0.458 -0.467,0.458zm-25.664,-7.632l0,3.053c0,0.503 -0.42,0.916 -0.934,0.916l-5.601,0a0.928,0.928 0 0 1 -0.934,-0.916l0,-3.053c0,-0.504 0.42,-0.916 0.934,-0.916l5.601,0c0.514,0 0.934,0.412 0.934,0.916zm14.937,0l0,3.053c0,0.503 -0.42,0.916 -0.934,0.916l-10.58,0a0.928,0.928 0 0 1 -0.934,-0.916l0,-3.053c0,-0.504 0.42,-0.916 0.934,-0.916l10.58,0c0.514,0 0.934,0.412 0.934,0.916z"/>
  <path id="e" d="m53.551,17.955l-37.328,0c-2.07,0 -3.742,1.64 -3.742,3.663l0,26.864c0,2.022 1.673,3.663 3.742,3.663l37.328,0c2.07,0 3.742,-1.64 3.742,-3.663l0,-26.864c0,-2.023 -1.672,-3.663 -3.742,-3.663zm-36.86,3.663l36.393,0c0.257,0 0.467,0.206 0.467,0.458l0,3.205l-37.328,0l0,-3.205c0,-0.252 0.21,-0.458 0.467,-0.458l0.001,0zm36.393,26.864l-36.394,0a0.464,0.464 0 0 1 -0.467,-0.458l0,-12.974l37.328,0l0,12.974c0,0.252 -0.21,0.458 -0.467,0.458zm-25.664,-7.632l0,3.053c0,0.503 -0.42,0.916 -0.934,0.916l-5.601,0a0.928,0.928 0 0 1 -0.934,-0.916l0,-3.053c0,-0.504 0.42,-0.916 0.934,-0.916l5.601,0c0.514,0 0.934,0.412 0.934,0.916zm14.937,0l0,3.053c0,0.503 -0.42,0.916 -0.934,0.916l-10.58,0a0.928,0.928 0 0 1 -0.934,-0.916l0,-3.053c0,-0.504 0.42,-0.916 0.934,-0.916l10.58,0c0.514,0 0.934,0.412 0.934,0.916z"/>
  <linearGradient id="c" x1="100%" x2="0%" y1="0%" y2="100%">
   <stop offset="0%" stop-color="#94B6C8"/>
   <stop offset="100%" stop-color="#6A9EBA"/>
  </linearGradient>
 </defs>
 <g>
  <title>Layer 1</title>
  <g fill="none" fill-rule="evenodd" id="svg_1">
   <mask id="b" fill="#fff">
    <use xlink:href="#a" id="svg_2"/>
   </mask>
   <g mask="url(#b)" id="svg_3">
    <path fill="url(#c)" d="m0,-0.37037l70,0l0,70l-70,0l0,-70z" id="svg_4"/>
    <path fill="#FFF" fill-opacity="0.383" d="m4,0.62963l61,0c2.667,0 4.333,0.667 5,2l0,-3l-70,0l0,3c0.667,-1.333 2,-2 4,-2z" id="svg_5"/>
    <path fill="#393939" d="m43.95,69.62963l-39.95,0c-2,0 -4,-0.149 -4,-4.163l0,-27.742l13.403,-18.86l42.597,0.805l1.006,29.996l-13.056,19.964z" opacity="0.324" id="svg_6"/>
    <path fill="#000" fill-opacity="0.383" d="m4,68.62963l61,0c2.667,0 4.333,-1 5,-3l0,4l-70,0l0,-4c0.667,2 2,3 4,3z" id="svg_7"/>
   </g>
  </g>
  <path id="svg_8" d="m38.63346,42.04643l-1.14838,-4.01724c0.33654,-0.29506 0.65242,-0.61077 0.95059,-0.94862l4.01637,1.14778c0.42363,-0.61668 0.78822,-1.27171 1.11443,-1.95182l-2.98903,-2.89159c0.14318,-0.42489 0.26717,-0.85715 0.35573,-1.30269l4.02818,-1.0091c0.02952,-0.37178 0.05757,-0.74503 0.05757,-1.12565s-0.02952,-0.7524 -0.05757,-1.12418l-4.02818,-1.0091c-0.09004,-0.44554 -0.21403,-0.8778 -0.35573,-1.30269l2.99051,-2.89159c-0.32769,-0.67864 -0.69227,-1.33515 -1.1159,-1.95182l-4.01637,1.14631c-0.29669,-0.33637 -0.61404,-0.65208 -0.95059,-0.94862l1.14838,-4.01577c-0.61699,-0.42194 -1.27384,-0.78781 -1.95431,-1.11385l-2.89309,2.98896c-0.42363,-0.1431 -0.85759,-0.26555 -1.30336,-0.35555l-1.00815,-4.02757c-0.37344,-0.02803 -0.74541,-0.05754 -1.12624,-0.05754s-0.75279,0.02951 -1.12476,0.05754l-1.00963,4.02757c-0.44577,0.08999 -0.87826,0.21244 -1.30336,0.35555l-2.89309,-2.98896c-0.67899,0.33047 -1.33436,0.69487 -1.95136,1.11828l1.14838,4.01577c-0.33654,0.29506 -0.6539,0.61225 -0.94911,0.94714l-4.01785,-1.14778c-0.42363,0.61668 -0.78822,1.27318 -1.11443,1.9533l2.99051,2.89159c-0.1417,0.42489 -0.26569,0.85715 -0.35573,1.30269l-4.02966,1.0091c-0.02805,0.37178 -0.05757,0.74503 -0.05757,1.12418s0.02952,0.7524 0.05757,1.12565l4.02966,1.0091c0.09004,0.44554 0.21403,0.8778 0.35573,1.30269l-2.99051,2.89159c0.32621,0.67864 0.6908,1.33515 1.11443,1.95182l4.01785,-1.14778c0.29521,0.33784 0.61257,0.65208 0.94911,0.94862l-1.14838,4.01724c0.61699,0.42194 1.27384,0.78633 1.95283,1.11385l2.89309,-2.98896c0.42511,0.1431 0.85759,0.26703 1.30336,0.35555l1.00963,4.02609c0.37197,0.02951 0.74541,0.05754 1.12624,0.05754s0.75279,-0.02951 1.12624,-0.05754l1.00815,-4.02609c0.44577,-0.08999 0.87973,-0.21392 1.30336,-0.35555l2.89309,2.98896c0.67751,-0.33047 1.33436,-0.69487 1.95136,-1.1168zm-8.28367,-7.08291c-2.77057,0 -5.01714,-2.24541 -5.01714,-5.01454s2.24657,-5.01307 5.01714,-5.01307s5.01567,2.24393 5.01567,5.01307s-2.24509,5.01454 -5.01567,5.01454zm22.86719,10.482c0.02805,-0.80699 -0.08856,-1.62873 -0.33949,-2.44015l1.83622,-2.61571c-0.2775,-0.51635 -0.59043,-1.00615 -0.94616,-1.45169l-3.13221,0.65651c-0.63176,-0.53701 -1.3506,-0.95599 -2.11963,-1.25548l-0.90188,-3.06715c-0.56976,-0.10032 -1.1469,-0.15491 -1.73142,-0.15638l-1.43769,2.85618c-0.41182,0.07967 -0.82364,0.18884 -1.22809,0.34374c-0.37935,0.14458 -0.7336,0.32457 -1.0731,0.52078l-2.96099,-1.20827c-0.43839,0.38653 -0.8384,0.80404 -1.20004,1.25696l1.33879,2.90339c-0.3823,0.73027 -0.64504,1.51661 -0.76608,2.33835l-2.79124,1.56382c0.02805,0.57242 0.11218,1.14483 0.24207,1.71872l3.10564,0.76568c0.34097,0.77306 0.79855,1.46497 1.35207,2.05509l-0.51957,3.15419c0.47234,0.33932 0.9742,0.63143 1.49525,0.88518l2.53145,-1.9474c0.79117,0.20802 1.61924,0.28768 2.45322,0.22129l2.14325,2.37081c0.29521,-0.08409 0.58895,-0.17409 0.87973,-0.28473c0.25831,-0.09737 0.50186,-0.21244 0.74541,-0.32899l0.05461,-3.19402c0.67161,-0.50013 1.24432,-1.10205 1.70043,-1.77921l3.18978,-0.19769c0.22436,-0.52963 0.41182,-1.07992 0.54319,-1.64496l-2.46355,-2.03886zm-6.14486,2.96093c-1.77275,0.67569 -3.75658,-0.21244 -4.4341,-1.98428s0.21108,-3.75611 1.98383,-4.43328c1.77275,-0.67569 3.75954,0.21244 4.43705,1.98428c0.67604,1.77183 -0.21403,3.75611 -1.98678,4.43328z" stroke="#ffffff" fill="#fff"/>
 </g>
</svg>