<svg width="70" height="70" xmlns="http://www.w3.org/2000/svg" xmlns:xlink="http://www.w3.org/1999/xlink">
 <defs>
  <path d="m4,0c32.41601,0 54.08361,0 61,0c4,0 5,1 5,5c0,38.04889 0,57.42355 0,60c0,4 -1,5 -5,5c-4,0 -56,0 -61,0c-3,0 -4,-1 -4,-5c0,-2.53234 0,-23.19948 0,-60c0,-4 1,-5 4,-5z" id="icon-a"/>
  <linearGradient y2="100%" y1="0%" x2="0%" x1="100%" id="icon-c">
   <stop stop-color="#B06161" offset="0%"/>
   <stop stop-color="#984E4E" offset="45.785%"/>
   <stop stop-color="#7C3838" offset="100%"/>
  </linearGradient>
 </defs>
 <g>
  <title>Layer 1</title>
  <g id="svg_1" fill-rule="evenodd" fill="none">
   <mask fill="#fff" id="icon-b">
    <use id="svg_2" xlink:href="#icon-a"/>
   </mask>
   <g id="svg_3" mask="url(#icon-b)">
    <rect id="svg_4" fill="url(#icon-c)" height="70" width="70"/>
    <path id="svg_5" d="m4,1l61,0c2.66667,0 4.33333,0.66667 5,2c0,-2.66667 0,-3.66667 0,-3l-70,0c0,-0.66667 0,0.33333 0,3c0.66667,-1.33333 2,-2 4,-2z" fill-opacity="0.383" fill="#FFF"/>
    <path id="svg_6" opacity="0.324" d="m4,70c-2,0 -4,-0.14787 -4,-4.14035l0,-19.66667l29.92183,-35.19298l5.07817,0l0,11.38596l14,2.07018l5,21.73684l-16.27932,23.80702l-33.72068,0z" fill="#393939"/>
    <path id="svg_7" d="m4,69l61,0c2.66667,0 4.33333,-1 5,-3c0,2.66667 0,4 0,4l-70,0c0,0 0,-1.33333 0,-4c0.66667,2 2,3 4,3z" fill-opacity="0.383" fill="#000"/>
   </g>
  </g>
  <path stroke="#ffffff" id="svg_8" d="m50.54395,35.13722c-1.55976,-8.61241 -9.02315,-15.14332 -18.01491,-15.14332l0,6.6608c6.47202,0.00999 11.70647,5.28867 11.72134,11.81292c-0.01487,6.52259 -5.24932,11.79794 -11.72134,11.81126l0,6.66413c8.99176,-0.00666 16.45515,-6.53757 18.01491,-15.14665l7.74924,0l0,-6.65913l-7.74924,0zm-7.74097,3.3304c0,-5.71996 -4.59997,-10.35587 -10.27559,-10.35587c-4.51571,0 -8.34406,2.94074 -9.72207,7.02381l-11.29174,0l0,6.66246l11.29174,0c1.37636,4.08307 5.20471,7.02548 9.72207,7.02548c5.67561,0 10.27559,-4.63758 10.27559,-10.35587z" fill="#ffffff"/>
 </g>
</svg>