<svg width="70" height="70" xmlns="http://www.w3.org/2000/svg" xmlns:xlink="http://www.w3.org/1999/xlink">
 <defs>
  <path d="m4,0l61,0c4,0 5,1 5,5l0,60c0,4 -1,5 -5,5l-61,0c-3,0 -4,-1 -4,-5l0,-60c0,-4 1,-5 4,-5z" id="a"/>
  <linearGradient y2="100%" y1="0%" x2="0%" x1="100%" id="c">
   <stop stop-color="#B06161" offset="0%"/>
   <stop stop-color="#984E4E" offset="45.785%"/>
   <stop stop-color="#7C3838" offset="100%"/>
  </linearGradient>
 </defs>
 <g>
  <title>Layer 1</title>
  <g id="svg_1" fill-rule="evenodd" fill="none">
   <mask fill="#fff" id="b">
    <use id="svg_2" xlink:href="#a"/>
   </mask>
   <g id="svg_3" mask="url(#b)">
    <path id="svg_4" d="m0,0l70,0l0,70l-70,0l0,-70z" fill="url(#c)"/>
    <path id="svg_5" d="m4,1l61,0c2.667,0 4.333,0.667 5,2l0,-3l-70,0l0,3c0.667,-1.333 2,-2 4,-2z" fill-opacity="0.383" fill="#FFF"/>
    <path id="svg_6" opacity="0.33" d="m32.44,69l-28.44,0c-2,0 -4,-1 -4,-4l0,-22.85l15.632,-16.68l20.368,-4.47l16,4l7.943,5.353l-4.943,5.647l0,8.576l-22.56,24.424z" fill="#393939"/>
    <path id="svg_7" d="m4,69l61,0c2.667,0 4.333,-1 5,-3l0,4l-70,0l0,-4c0.667,2 2,3 4,3z" fill-opacity="0.383" fill="#000"/>
    <path id="svg_8" opacity="0.3" d="m54.85,36.807a0.36,0.36 0 0 1 0.15,0.293l0,9.393a0.36,0.36 0 0 1 -0.222,0.333l-17.28,7.147a0.357,0.357 0 0 1 -0.338,-0.034a0.36,0.36 0 0 1 -0.16,-0.3l0,-17.279a0.36,0.36 0 0 1 0.64,-0.226l3.85,4.76s0.182,0.243 0.462,0.146c0.334,-0.115 12.572,-4.281 12.572,-4.281a0.36,0.36 0 0 1 0.326,0.048zm5.075,-4.873a0.345,0.345 0 0 1 0.058,0.322a0.369,0.369 0 0 1 -0.24,0.233l-17.035,5.487a0.387,0.387 0 0 1 -0.415,-0.114l-4.769,-5.578l-1.413,0.37l-0.021,0.004a0.396,0.396 0 0 1 -0.2,0l-1.414,-0.369l-4.769,5.578a0.387,0.387 0 0 1 -0.415,0.114l-17.035,-5.487a0.369,0.369 0 0 1 -0.24,-0.233a0.344,0.344 0 0 1 0.058,-0.322l3.466,-4.395a0.379,0.379 0 0 1 0.2,-0.13l20.146,-5.398a0.484,0.484 0 0 1 0.226,-0.005l20.147,5.399c0.08,0.021 0.15,0.067 0.2,0.13l3.466,4.395l-0.001,-0.001zm-23.915,-0.804l14.426,-3.75l-14.426,-3.844l-14.447,3.849l14.447,3.745zm-1.264,4.89c0.152,0.052 0.253,0.188 0.253,0.34l0,17.28c0,0.12 -0.063,0.232 -0.169,0.3a0.394,0.394 0 0 1 -0.356,0.033l-18.24,-7.147a0.36,0.36 0 0 1 -0.235,-0.333l0,-9.393c0,-0.116 0.059,-0.225 0.159,-0.293a0.398,0.398 0 0 1 0.343,-0.048s12.918,4.166 13.27,4.281c0.297,0.097 0.488,-0.146 0.488,-0.146l4.065,-4.76a0.393,0.393 0 0 1 0.422,-0.113l0,-0.001z" fill-rule="nonzero" fill="#000"/>
    <path id="svg_9" d="m54.85,34.807a0.36,0.36 0 0 1 0.15,0.293l0,9.393a0.36,0.36 0 0 1 -0.222,0.333l-17.28,7.147a0.357,0.357 0 0 1 -0.338,-0.034a0.36,0.36 0 0 1 -0.16,-0.3l0,-17.279a0.36,0.36 0 0 1 0.64,-0.226l3.85,4.76s0.182,0.243 0.462,0.146c0.334,-0.115 12.572,-4.281 12.572,-4.281a0.36,0.36 0 0 1 0.326,0.048zm5.075,-4.873a0.345,0.345 0 0 1 0.058,0.322a0.369,0.369 0 0 1 -0.24,0.233l-17.035,5.487a0.387,0.387 0 0 1 -0.415,-0.114l-4.769,-5.578l-1.413,0.37l-0.021,0.004a0.396,0.396 0 0 1 -0.2,0l-1.414,-0.369l-4.769,5.578a0.387,0.387 0 0 1 -0.415,0.114l-17.035,-5.487a0.369,0.369 0 0 1 -0.24,-0.233a0.344,0.344 0 0 1 0.058,-0.322l3.466,-4.395a0.379,0.379 0 0 1 0.2,-0.13l20.146,-5.398a0.484,0.484 0 0 1 0.226,-0.005l20.147,5.399c0.08,0.021 0.15,0.067 0.2,0.13l3.466,4.395l-0.001,-0.001zm-23.915,-0.804l14.426,-3.75l-14.426,-3.844l-14.447,3.849l14.447,3.745zm-1.264,4.89c0.152,0.052 0.253,0.188 0.253,0.34l0,17.28c0,0.12 -0.063,0.232 -0.169,0.3a0.394,0.394 0 0 1 -0.356,0.033l-18.24,-7.147a0.36,0.36 0 0 1 -0.235,-0.333l0,-9.393c0,-0.116 0.059,-0.225 0.159,-0.293a0.398,0.398 0 0 1 0.343,-0.048s12.918,4.166 13.27,4.281c0.297,0.097 0.488,-0.146 0.488,-0.146l4.065,-4.76a0.393,0.393 0 0 1 0.422,-0.113l0,-0.001z" fill-rule="nonzero" fill="#FFF"/>
   </g>
  </g>
 </g>
</svg>