<svg width="70" height="70" xmlns="http://www.w3.org/2000/svg" xmlns:xlink="http://www.w3.org/1999/xlink">
 <defs>
  <path id="a" d="m4,0l61,0c4,0 5,1 5,5l0,60c0,4 -1,5 -5,5l-61,0c-3,0 -4,-1 -4,-5l0,-60c0,-4 1,-5 4,-5z"/>
  <path id="d" d="m53,41.498a10.134,10.134 0 0 0 -3,-0.833l0,-13.665l-10,0c-2,0 -3,-1 -3,-3l0,-7l-16,0l0,38l18.498,0a10.224,10.224 0 0 0 2.073,3l-21.571,0c-1.333,0 -2,-0.667 -2,-2l0,-40c0,-1.333 0.667,-2 2,-2l20,0c2,1 10,7 13,9l0,18.498zm-13,-24.498l0,7l10,0l-10,-7zm2.703,18.608l0,1.56c0,0.368 -0.434,0.67 -0.963,0.67l-13.48,0c-0.53,0 -0.963,-0.302 -0.963,-0.67l0,-1.56c0,-0.368 0.434,-0.669 0.963,-0.669l13.48,0c0.53,0 0.963,0.301 0.963,0.669zm-0.963,5.275c0.53,0 0.963,0.3 0.963,0.669l0,0.448c0,0.64 -1.173,1.781 -1.703,1.781l-12.74,0c-0.53,0 -0.963,-0.3 -0.963,-0.669l0,-1.56c0,-0.368 0.434,-0.67 0.963,-0.67l13.48,0l0,0.001zm-2.74,6.117c0.259,0 0.124,0.969 -0.405,2.906l-10.592,0c-0.388,0 -0.706,-0.3 -0.706,-0.669l0,-1.56c0,-0.368 0.318,-0.67 0.706,-0.67l10.997,-0.007zm16.145,5.143l1.388,0.8c0.158,0.092 0.232,0.28 0.177,0.456a8.06,8.06 0 0 1 -1.78,3.079a0.391,0.391 0 0 1 -0.483,0.073l-1.386,-0.8c-0.583,0.499 -1.254,0.887 -1.978,1.143l0,1.6a0.391,0.391 0 0 1 -0.305,0.382a8.137,8.137 0 0 1 -3.555,0a0.391,0.391 0 0 1 -0.306,-0.381l0,-1.601a6.236,6.236 0 0 1 -1.978,-1.144l-1.386,0.8a0.391,0.391 0 0 1 -0.483,-0.072a8.06,8.06 0 0 1 -1.78,-3.08a0.391,0.391 0 0 1 0.177,-0.455l1.388,-0.8a6.298,6.298 0 0 1 0,-2.286l-1.388,-0.8a0.391,0.391 0 0 1 -0.177,-0.456a8.06,8.06 0 0 1 1.78,-3.079a0.391,0.391 0 0 1 0.483,-0.073l1.386,0.8a6.236,6.236 0 0 1 1.978,-1.143l0,-1.6c0,-0.184 0.126,-0.342 0.305,-0.382a8.137,8.137 0 0 1 3.555,0c0.179,0.04 0.306,0.198 0.306,0.381l0,1.601a6.236,6.236 0 0 1 1.978,1.144l1.386,-0.8a0.391,0.391 0 0 1 0.483,0.072a8.06,8.06 0 0 1 1.78,3.08a0.391,0.391 0 0 1 -0.177,0.455l-1.388,0.8c0.14,0.756 0.14,1.53 0,2.286zm-3.54,-1.143a2.607,2.607 0 0 0 -2.605,-2.604a2.607,2.607 0 0 0 -2.604,2.604a2.607,2.607 0 0 0 2.604,2.604a2.607,2.607 0 0 0 2.604,-2.604l0.001,0z"/>
  <path id="e" d="m53,39.498a10.134,10.134 0 0 0 -3,-0.833l0,-13.665l-10,0c-2,0 -3,-1 -3,-3l0,-7l-16,0l0,38l18.498,0a10.224,10.224 0 0 0 2.073,3l-21.571,0c-1.333,0 -2,-0.667 -2,-2l0,-40c0,-1.333 0.667,-2 2,-2l20,0c2,1 10,7 13,9l0,18.498zm-13,-24.498l0,7l10,0l-10,-7zm2.703,18.608l0,1.56c0,0.368 -0.434,0.67 -0.963,0.67l-13.48,0c-0.53,0 -0.963,-0.302 -0.963,-0.67l0,-1.56c0,-0.368 0.434,-0.669 0.963,-0.669l13.48,0c0.53,0 0.963,0.301 0.963,0.669zm-0.963,5.275c0.53,0 0.963,0.3 0.963,0.669l0,0.448c0,0.64 -1.173,1.781 -1.703,1.781l-12.74,0c-0.53,0 -0.963,-0.3 -0.963,-0.669l0,-1.56c0,-0.368 0.434,-0.67 0.963,-0.67l13.48,0l0,0.001zm-2.74,6.117c0.259,0 0.124,0.969 -0.405,2.906l-10.592,0c-0.388,0 -0.706,-0.3 -0.706,-0.669l0,-1.56c0,-0.368 0.318,-0.67 0.706,-0.67l10.997,-0.007zm16.145,5.143l1.388,0.8c0.158,0.092 0.232,0.28 0.177,0.456a8.06,8.06 0 0 1 -1.78,3.079a0.391,0.391 0 0 1 -0.483,0.073l-1.386,-0.8c-0.583,0.499 -1.254,0.887 -1.978,1.143l0,1.6a0.391,0.391 0 0 1 -0.305,0.382a8.137,8.137 0 0 1 -3.555,0a0.391,0.391 0 0 1 -0.306,-0.381l0,-1.601a6.236,6.236 0 0 1 -1.978,-1.144l-1.386,0.8a0.391,0.391 0 0 1 -0.483,-0.072a8.06,8.06 0 0 1 -1.78,-3.08a0.391,0.391 0 0 1 0.177,-0.455l1.388,-0.8a6.298,6.298 0 0 1 0,-2.286l-1.388,-0.8a0.391,0.391 0 0 1 -0.177,-0.456a8.06,8.06 0 0 1 1.78,-3.079a0.391,0.391 0 0 1 0.483,-0.073l1.386,0.8a6.236,6.236 0 0 1 1.978,-1.143l0,-1.6c0,-0.184 0.126,-0.342 0.305,-0.382a8.137,8.137 0 0 1 3.555,0c0.179,0.04 0.306,0.198 0.306,0.381l0,1.601a6.236,6.236 0 0 1 1.978,1.144l1.386,-0.8a0.391,0.391 0 0 1 0.483,0.072a8.06,8.06 0 0 1 1.78,3.08a0.391,0.391 0 0 1 -0.177,0.455l-1.388,0.8c0.14,0.756 0.14,1.53 0,2.286zm-3.54,-1.143a2.607,2.607 0 0 0 -2.605,-2.604a2.607,2.607 0 0 0 -2.604,2.604a2.607,2.607 0 0 0 2.604,2.604a2.607,2.607 0 0 0 2.604,-2.604l0.001,0z"/>
  <linearGradient id="c" x1="100%" x2="0%" y1="0%" y2="100%">
   <stop offset="0%" stop-color="#CD7690"/>
   <stop offset="100%" stop-color="#CA5377"/>
  </linearGradient>
 </defs>
 <g>
  <title>Layer 1</title>
  <g id="svg_10">
   <g fill="none" fill-rule="evenodd" id="svg_1">
    <mask id="b" fill="#fff">
     <use xlink:href="#a" id="svg_2"/>
    </mask>
    <g mask="url(#b)" id="svg_3">
     <path fill="url(#c)" d="m0,0l70,0l0,70l-70,0l0,-70z" id="svg_4"/>
     <path fill="#FFF" fill-opacity="0.383" d="m4,1l61,0c2.667,0 4.333,0.667 5,2l0,-3l-70,0l0,3c0.667,-1.333 2,-2 4,-2z" id="svg_5"/>
     <path fill="#393939" d="m41.344,69l-37.344,0c-2,0 -4,-1 -4,-4l0,-36.145l18.213,-15.855l20.787,0c4.398,3.978 9.065,7.032 14,9.164a1793.6,1793.6 0 0 1 0,22.4l3.697,2.272l-2.494,3.96l0.69,3.572l-13.549,14.632z" opacity="0.324" id="svg_6"/>
     <path fill="#000" fill-opacity="0.383" d="m4,69l61,0c2.667,0 4.333,-1 5,-3l0,4l-70,0l0,-4c0.667,2 2,3 4,3z" id="svg_7"/>
     <use fill="#000" fill-rule="nonzero" opacity="0.3" xlink:href="#d" id="svg_8"/>
     <use fill="#FFF" fill-rule="nonzero" xlink:href="#e" id="svg_9"/>
    </g>
   </g>
  </g>
 </g>
</svg>