<svg width="70" height="70" xmlns="http://www.w3.org/2000/svg" xmlns:xlink="http://www.w3.org/1999/xlink">
 <defs>
  <path d="m4,0l61,0c4,0 5,1 5,5l0,60c0,4 -1,5 -5,5l-61,0c-3,0 -4,-1 -4,-5l0,-60c0,-4 1,-5 4,-5z" id="a"/>
  <path d="m53.551,19.955l-37.328,0c-2.07,0 -3.742,1.64 -3.742,3.663l0,26.864c0,2.022 1.673,3.663 3.742,3.663l37.328,0c2.07,0 3.742,-1.64 3.742,-3.663l0,-26.864c0,-2.023 -1.672,-3.663 -3.742,-3.663zm-36.86,3.663l36.393,0c0.257,0 0.467,0.206 0.467,0.458l0,3.205l-37.328,0l0,-3.205c0,-0.252 0.21,-0.458 0.467,-0.458l0.001,0zm36.393,26.864l-36.394,0a0.464,0.464 0 0 1 -0.467,-0.458l0,-12.974l37.328,0l0,12.974c0,0.252 -0.21,0.458 -0.467,0.458zm-25.664,-7.632l0,3.053c0,0.503 -0.42,0.916 -0.934,0.916l-5.601,0a0.928,0.928 0 0 1 -0.934,-0.916l0,-3.053c0,-0.504 0.42,-0.916 0.934,-0.916l5.601,0c0.514,0 0.934,0.412 0.934,0.916zm14.937,0l0,3.053c0,0.503 -0.42,0.916 -0.934,0.916l-10.58,0a0.928,0.928 0 0 1 -0.934,-0.916l0,-3.053c0,-0.504 0.42,-0.916 0.934,-0.916l10.58,0c0.514,0 0.934,0.412 0.934,0.916z" id="d"/>
  <path d="m53.551,17.955l-37.328,0c-2.07,0 -3.742,1.64 -3.742,3.663l0,26.864c0,2.022 1.673,3.663 3.742,3.663l37.328,0c2.07,0 3.742,-1.64 3.742,-3.663l0,-26.864c0,-2.023 -1.672,-3.663 -3.742,-3.663zm-36.86,3.663l36.393,0c0.257,0 0.467,0.206 0.467,0.458l0,3.205l-37.328,0l0,-3.205c0,-0.252 0.21,-0.458 0.467,-0.458l0.001,0zm36.393,26.864l-36.394,0a0.464,0.464 0 0 1 -0.467,-0.458l0,-12.974l37.328,0l0,12.974c0,0.252 -0.21,0.458 -0.467,0.458zm-25.664,-7.632l0,3.053c0,0.503 -0.42,0.916 -0.934,0.916l-5.601,0a0.928,0.928 0 0 1 -0.934,-0.916l0,-3.053c0,-0.504 0.42,-0.916 0.934,-0.916l5.601,0c0.514,0 0.934,0.412 0.934,0.916zm14.937,0l0,3.053c0,0.503 -0.42,0.916 -0.934,0.916l-10.58,0a0.928,0.928 0 0 1 -0.934,-0.916l0,-3.053c0,-0.504 0.42,-0.916 0.934,-0.916l10.58,0c0.514,0 0.934,0.412 0.934,0.916z" id="e"/>
  <linearGradient y2="100%" y1="0%" x2="0%" x1="100%" id="c">
   <stop stop-color="#94B6C8" offset="0%"/>
   <stop stop-color="#6A9EBA" offset="100%"/>
  </linearGradient>
 </defs>
 <g>
  <title>Layer 1</title>
  <g id="svg_1" fill-rule="evenodd" fill="none">
   <mask fill="#fff" id="b">
    <use id="svg_2" xlink:href="#a"/>
   </mask>
   <g id="svg_3" mask="url(#b)">
    <path id="svg_4" d="m0,0l70,0l0,70l-70,0l0,-70z" fill="url(#c)"/>
    <path id="svg_5" d="m4,1l61,0c2.667,0 4.333,0.667 5,2l0,-3l-70,0l0,3c0.667,-1.333 2,-2 4,-2z" fill-opacity="0.383" fill="#FFF"/>
    <path id="svg_6" opacity="0.324" d="m43.95,70l-39.95,0c-2,0 -4,-0.149 -4,-4.163l0,-27.742l13.403,-18.86l42.597,0.805l1.006,29.996l-13.056,19.964z" fill="#393939"/>
    <path id="svg_7" d="m4,69l61,0c2.667,0 4.333,-1 5,-3l0,4l-70,0l0,-4c0.667,2 2,3 4,3z" fill-opacity="0.383" fill="#000"/>
    <use id="svg_8" xlink:href="#d" fill-rule="nonzero" fill-opacity="0.3" fill="#000"/>
    <use id="svg_9" xlink:href="#e" fill-rule="nonzero" fill="#FFF"/>
   </g>
  </g>
 </g>
</svg>