<svg width="70" height="70" xmlns="http://www.w3.org/2000/svg" xmlns:xlink="http://www.w3.org/1999/xlink">
 <defs>
  <path d="m4,0l61,0c4,0 5,1 5,5l0,60c0,4 -1,5 -5,5l-61,0c-3,0 -4,-1 -4,-5l0,-60c0,-4 1,-5 4,-5z" id="a"/>
  <path d="m56.243,52.279c0.578,0 1.05,0.537 1.05,1.193l0,0.978c0,0.656 -0.472,1.194 -1.05,1.194l-42.711,0c-0.578,0 -1.05,-0.538 -1.05,-1.194l0,-35.8c0,-0.657 0.472,-1.194 1.05,-1.194l1.5,0c0.578,0 1.05,0.537 1.05,1.194l0,33.629l40.161,0zm-17.243,-29.254l4.981,4.963l-6.302,7.25l-4.866,-5.53c-0.411,-0.467 -1.068,-0.467 -1.48,0l-10.413,11.715a1.31,1.31 0 0 0 -0.018,1.68l2.494,2.924c0.412,0.477 1.086,0.487 1.497,0.01l7.186,-8.165l4.857,5.52a0.965,0.965 0 0 0 1.488,0l9.558,-10.86l5.018,5.132l2,-17.664l-16,3.025z" id="d"/>
  <path d="m56.243,50.279c0.578,0 1.05,0.537 1.05,1.193l0,0.978c0,0.656 -0.472,1.194 -1.05,1.194l-42.711,0c-0.578,0 -1.05,-0.538 -1.05,-1.194l0,-35.8c0,-0.657 0.472,-1.194 1.05,-1.194l1.5,0c0.578,0 1.05,0.537 1.05,1.194l0,33.629l40.161,0zm-17.243,-29.254l4.981,4.963l-6.302,7.25l-4.866,-5.53c-0.411,-0.467 -1.068,-0.467 -1.48,0l-10.413,11.715a1.31,1.31 0 0 0 -0.018,1.68l2.494,2.924c0.412,0.477 1.086,0.487 1.497,0.01l7.186,-8.165l4.857,5.52a0.965,0.965 0 0 0 1.488,0l9.558,-10.86l5.018,5.132l2,-17.664l-16,3.025z" id="e"/>
  <linearGradient y2="100%" y1="0%" x2="0%" x1="100%" id="c">
   <stop stop-color="#DA956B" offset="0%"/>
   <stop stop-color="#CC7039" offset="100%"/>
  </linearGradient>
 </defs>
 <g>
  <title>Layer 1</title>
  <g id="svg_1" fill-rule="evenodd" fill="none">
   <mask fill="#fff" id="b">
    <use id="svg_2" xlink:href="#a"/>
   </mask>
   <g id="svg_3" mask="url(#b)">
    <path id="svg_4" d="m0,0l70,0l0,70l-70,0l0,-70z" fill="url(#c)"/>
    <path id="svg_5" d="m4,1l61,0c2.667,0 4.333,0.667 5,2l0,-3l-70,0l0,3c0.667,-1.333 2,-2 4,-2z" fill-opacity="0.383" fill="#FFF"/>
    <path id="svg_6" opacity="0.324" d="m45.243,69l-41.243,0c-2,0 -4,-0.146 -4,-4.077l0,-29.608l13,-19.315l3,0l0,26.5l15,-14.27l0.974,0.024l8.026,-7.158l13,14.27l-18,18.346l22,0l-11.757,15.288z" fill="#393939"/>
    <path id="svg_7" d="m4,69l61,0c2.667,0 4.333,-1 5,-3l0,4l-70,0l0,-4c0.667,2 2,3 4,3z" fill-opacity="0.383" fill="#000"/>
    <use id="svg_8" xlink:href="#d" opacity="0.3" fill-rule="nonzero" fill="#000"/>
    <use id="svg_9" xlink:href="#e" fill-rule="nonzero" fill="#FFF"/>
   </g>
  </g>
 </g>
</svg>