<svg width="70" height="70" xmlns="http://www.w3.org/2000/svg" xmlns:xlink="http://www.w3.org/1999/xlink">
 <defs>
  <path id="icon-a" d="m4,0l61,0c4,0 5,1 5,5l0,60c0,4 -1,5 -5,5l-61,0c-3,0 -4,-1 -4,-5l0,-60c0,-4 1,-5 4,-5z"/>
  <path id="icon-d" d="m56.583,23.333l-3.5,0c-0.518,0 -0.983,0.226 -1.304,0.584l-1.715,0l-2.27,-2.647l-0.012,-0.013a7.581,7.581 0 0 0 -5.707,-2.59l-3.394,0c-1.294,0 -2.545,0.36 -3.623,1.021a8.19,8.19 0 0 0 -3.95,-1.021l-2.342,0c-2.107,0 -4.2,0.818 -5.775,2.391l-2.857,2.859l-1.914,0a1.745,1.745 0 0 0 -1.304,-0.584l-3.5,0a1.75,1.75 0 0 0 -1.75,1.75l0,17.5c0,0.967 0.783,1.75 1.75,1.75l3.5,0a1.75,1.75 0 0 0 1.65,-1.166l1.37,0l5.495,4.927c1.862,1.928 4.37,3.24 7.042,3.24c1.195,0 2.354,-0.281 3.362,-0.798c1.818,0.037 3.726,-0.756 5.036,-2.29a7.109,7.109 0 0 0 3.698,-2.523c1.53,-0.32 2.97,-1.202 3.896,-2.556l2.967,0a1.75,1.75 0 0 0 1.65,1.166l3.5,0a1.75,1.75 0 0 0 1.75,-1.75l0,-17.5a1.75,1.75 0 0 0 -1.75,-1.75l0.001,0zm-41.416,18.667a1.167,1.167 0 1 1 0,-2.333a1.167,1.167 0 0 1 0,2.333zm30.08,-0.42c-1.12,1.042 -2.69,0.826 -2.914,0.583c0.103,0.976 -1.331,2.993 -3.579,2.835c-0.404,1.351 -2.057,2.467 -3.754,1.878c-0.648,0.648 -1.638,0.957 -2.526,0.957c-1.82,0 -3.483,-1.06 -4.604,-2.254l-5.928,-5.316a2.332,2.332 0 0 0 -1.557,-0.596l-1.718,0l0,-12.25l1.95,0c0.619,0 1.212,-0.246 1.65,-0.684l3.2,-3.2a4.667,4.667 0 0 1 3.3,-1.366l2.34,0c0.424,0 0.84,0.057 1.24,0.167l-3.155,3.682a5.376,5.376 0 0 0 -0.048,6.96c2.362,2.833 6.663,2.86 9.077,0.143l1.894,-2.193l5.282,6.99c0.98,1.065 0.799,2.781 -0.15,3.664zm6.086,-1.913l-1.783,0a5.985,5.985 0 0 0 -1.441,-3.967l-5.693,-7.534a1.752,1.752 0 0 0 -2.907,-1.894l-3.911,4.53a2.49,2.49 0 0 1 -3.765,-0.068a1.885,1.885 0 0 1 0.016,-2.44l4.224,-4.928a3.434,3.434 0 0 1 2.608,-1.2l3.394,0c1.175,0 2.293,0.507 3.068,1.389l3.312,3.862l2.878,0l0,12.25zm3.5,2.333a1.167,1.167 0 1 1 0,-2.333a1.167,1.167 0 0 1 0,2.333z"/>
  <linearGradient id="icon-c" x1="98.162%" x2="0%" y1="1.838%" y2="100%">
   <stop offset="0%" stop-color="#797DA5"/>
   <stop offset="50.799%" stop-color="#6D7194"/>
   <stop offset="100%" stop-color="#626584"/>
  </linearGradient>
 </defs>
 <g>
  <title>Layer 1</title>
  <g fill="none" fill-rule="evenodd" id="svg_1">
   <mask id="icon-b" fill="#fff">
    <use xlink:href="#icon-a" id="svg_2"/>
   </mask>
   <g mask="url(#icon-b)" id="svg_3">
    <path fill="url(#icon-c)" d="m0,0l70,0l0,70l-70,0l0,-70z" id="svg_4"/>
    <path fill="#FFF" fill-opacity="0.383" d="m4,1l61,0c2.667,0 4.333,0.667 5,2l0,-3l-70,0l0,3c0.667,-1.333 2,-2 4,-2z" id="svg_5"/>
    <path fill="#000" d="m33.423,69l-29.417,0c-2.003,0 -4.006,-0.146 -4.006,-4.089l0,-26.846l12.348,-13.998l8.686,0.293l8.341,-3.36l14.023,0l6.01,4.089l8.592,-0.729l0,19.558l-24.577,25.082z" opacity="0.165" id="svg_6"/>
    <path fill="#000" fill-opacity="0.383" d="m4,69l61,0c2.667,0 4.333,-1 5,-3l0,4l-70,0l0,-4c0.667,2 2,3 4,3z" id="svg_7"/>
   </g>
  </g>
  <path id="svg_8" d="m54.72686,26.54979c-1.3805,2.02873 -7.32559,4.60189 -8.09237,4.60189l-6.51693,0c-1.08158,0 -2.71045,0.28081 -3.47724,0.92458c0.08809,0.10316 0.17617,0.20631 0.26137,0.31138c0.58917,0.724 1.96678,1.74409 3.18554,1.74409c0.57328,0 1.04404,-0.21968 1.44403,-0.67624c1.70107,-1.92366 2.58482,-2.14908 3.09746,-2.14908c0.60794,0 1.13068,0.36869 1.43826,1.01436c0.57761,1.19584 0.15307,2.76037 -0.28014,3.98678c-1.03682,2.91128 -4.41586,6.05753 -8.07938,6.05753c-0.00289,0 -0.00289,0 -0.00578,0c-0.51119,0 -1.01227,-0.06304 -1.49169,-0.18912l0,6.21035c0,1.41744 1.49169,4.83877 6.01729,4.83877s5.71116,-7.06998 5.71116,-8.28684l0,-8.61923c3.2202,-2.23313 6.51549,-3.44807 8.09237,-7.44058c1.48302,-3.75181 0.07509,-4.35737 -1.30396,-2.32864zm-10.12269,9.02803c1.14945,-3.24558 -0.07653,-3.24558 -2.22381,-0.81187s-5.29239,0.20058 -6.36531,-1.11752c-1.07292,-1.31619 -2.14584,-2.33055 -4.06351,-2.22931c-1.91768,0.10125 -6.4404,-0.30756 -9.04977,-1.11752c-2.60648,-0.81187 -7.06855,-5.73087 -7.43678,-4.46053c-0.38411,1.3181 0.30469,2.23122 1.68663,4.46053c1.37905,2.23313 7.32848,5.30679 7.32848,5.30679s0,6.59623 0,9.33368c0,2.74127 4.29312,6.89615 6.51549,6.89615s3.91045,-2.02873 3.91045,-3.44998l0,-8.61923c3.68085,2.54069 8.54869,-0.94368 9.69814,-4.19118zm-2.31046,-7.24191c2.5184,0 4.56171,-2.70115 4.56171,-6.0327c0,-3.33346 -2.04331,-6.03461 -4.56171,-6.03461s-4.56026,2.70115 -4.56026,6.03461c0,3.33155 2.04187,6.0327 4.56026,6.0327zm-12.0187,0c2.5184,0 4.56026,-2.70115 4.56026,-6.0327c0,-3.33346 -2.04187,-6.03461 -4.56026,-6.03461c-2.51984,0 -4.56171,2.70115 -4.56171,6.03461c0,3.33155 2.04042,6.0327 4.56171,6.0327z" stroke="#ffffff" fill="#fff"/>
 </g>
</svg>